# xmcd
#
# Track frame offsets:
#	150
#	10049
#	27834
#	42851
#	55906
#	74892
#	111252
#	125921
#	148714
#	164400
#	186078
#	199756
#	222308
#	233293
#	247083
#	262005
#	274486
#	287709
#
# Disc length: 4004 seconds
#
# Revision: 1
# Processed by: cddbd v1.5.2PL0 Copyright (c) Steve Scherf et al.
# Submitted via: EZCDAudioConverter 9.1.1.1
#
DISCID=1e0fa212
DTITLE=Various Artist - The All Electric Blues Album CD1 (UK 2000)
DYEAR=2000
DGENRE=Contemporary Blues
TTITLE0=John Lee Hooker - Dimples
TTITLE1=Lightnin' Hopkins - Found My Baby Crying 
TTITLE2=Robert Cray - The Welfare (Turns Its Back On You) 
TTITLE3=Elmore James - Dust My Broom
TTITLE4=Sonny Boy - Take It Easy Baby (Live) 
TTITLE5=Jimi Hendrix - Red House
TTITLE6=T-Bone Walker - I Got A Break Baby 
TTITLE7=John Mayall - Baby What You Want Me To Do 
TTITLE8=Fenton Robinson - The Sky Is Crying 
TTITLE9=Robert Cray - I'd Rather Be A Wino 
TTITLE10=James Cotton - Cotton Crop Blues
TTITLE11=Luther Allison - Sweet Home Chicago 
TTITLE12=Howlin' Wolf - Highway Man 
TTITLE13=Jeff Beck w The All Stars - Jeff's Blues 
TTITLE14=Dr. John - Zu Zu Man 
TTITLE15=Yardbirds - Good Morning Little Schoolgirl
TTITLE16=Little Junior Parker - Feelin' Good
TTITLE17=Jimmy Reed - Big Boss Man
EXTD=
EXTT0=
EXTT1=
EXTT2=
EXTT3=
EXTT4=
EXTT5=
EXTT6=
EXTT7=
EXTT8=
EXTT9=
EXTT10=
EXTT11=
EXTT12=
EXTT13=
EXTT14=
EXTT15=
EXTT16=
EXTT17=
PLAYORDER=
